<svg width="68.930054" height="55.459961" viewBox="0 0 68.9301 55.46" fill="none" xmlns="http://www.w3.org/2000/svg" xmlns:xlink="http://www.w3.org/1999/xlink">
	<desc>
			Created with Pixso.
	</desc>
	<defs>
		<clipPath id="clip25368_1672">
			<rect id="Logo" rx="-0.500000" width="67.930000" height="54.459999" transform="translate(0.500000 0.500000)" fill="white" fill-opacity="0"/>
		</clipPath>
	</defs>
	<rect id="Logo" rx="-0.500000" width="67.930000" height="54.459999" transform="translate(0.500000 0.500000)" fill="#FFFFFF" fill-opacity="0"/>
	<g clip-path="url(#clip25368_1672)">
		<path id="Vector" d="M39.15 16.86L37.84 15.86C37.63 15.7 37.37 15.62 37.11 15.65C36.84 15.67 36.6 15.8 36.44 16L18.31 36.82L18.59 37.13L23.08 33C22.93 32.93 22.8 32.82 22.73 32.68C22.65 32.54 22.62 32.38 22.66 32.22C22.69 32.06 22.78 31.92 22.9 31.82C23.03 31.72 23.18 31.66 23.35 31.66C23.49 31.66 23.63 31.71 23.75 31.8C23.87 31.88 23.95 32.01 24 32.14L29.92 26.65C30.01 26.58 30.12 26.54 30.24 26.54C30.35 26.54 30.46 26.58 30.56 26.65L30.86 26.87C30.96 26.95 31.08 26.98 31.21 26.96C31.33 26.95 31.44 26.89 31.53 26.79L39.27 18.11C39.35 18.03 39.41 17.93 39.45 17.81C39.49 17.7 39.5 17.58 39.49 17.46C39.48 17.34 39.44 17.23 39.38 17.13C39.32 17.02 39.24 16.93 39.15 16.86Z" fill="#303030" fill-opacity="1.000000" fill-rule="nonzero"/>
		<path id="Vector" d="M47.67 22.73C43.7 25.55 39.25 27.63 34.55 28.87C29.87 30.06 25.09 30.77 20.28 31C20.37 31.71 20.55 32.4 20.8 33.08C23.52 35.54 44 31.33 48 26.48C48.85 25.47 47.67 22.73 47.67 22.73ZM23.35 33C23.21 33 23.08 32.96 22.97 32.88C22.86 32.81 22.77 32.7 22.72 32.58C22.67 32.45 22.65 32.31 22.68 32.18C22.7 32.05 22.77 31.93 22.86 31.83C22.96 31.74 23.08 31.67 23.21 31.65C23.34 31.62 23.48 31.64 23.61 31.69C23.73 31.74 23.84 31.83 23.91 31.94C23.99 32.05 24.03 32.18 24.03 32.31C24.03 32.4 24.01 32.49 23.98 32.58C23.94 32.66 23.89 32.74 23.83 32.8C23.77 32.86 23.69 32.91 23.61 32.95C23.52 32.98 23.43 33 23.35 33Z" fill="#303030" fill-opacity="1.000000" fill-rule="nonzero"/>
		<path id="Vector" d="M4 21.29L4.16 20.6L6.76 21.18C6.97 21.58 7.1 22.02 7.15 22.46C7.19 22.94 7.16 23.42 7.06 23.89C6.93 24.53 6.63 25.13 6.2 25.62C5.78 26.09 5.25 26.44 4.66 26.62C4.04 26.81 3.39 26.84 2.77 26.69C2.14 26.56 1.56 26.26 1.1 25.81C0.64 25.39 0.31 24.85 0.15 24.25C-0.03 23.59 -0.03 22.9 0.15 22.25C0.25 21.76 0.45 21.29 0.72 20.87C0.97 20.48 1.31 20.16 1.72 19.93L2.08 20.48C1.73 20.7 1.43 20.98 1.21 21.31C0.98 21.65 0.83 22.03 0.76 22.43C0.63 22.94 0.64 23.48 0.79 24C0.92 24.48 1.19 24.92 1.56 25.27C1.93 25.63 2.41 25.88 2.93 26C3.43 26.14 3.95 26.14 4.46 26C4.93 25.84 5.36 25.56 5.71 25.18C6.05 24.78 6.3 24.3 6.41 23.77C6.57 23.14 6.53 22.47 6.29 21.87L4 21.29Z" fill="#303030" fill-opacity="1.000000" fill-rule="nonzero"/>
		<path id="Vector" d="M9.66 15L7.33 18.11L8.33 19.9L7.87 20.52L4.17 13.77L4.6 13.18L12.13 14.8L11.66 15.42L9.66 15ZM9 14.84L5 13.93L7 17.53L9 14.84Z" fill="#303030" fill-opacity="1.000000" fill-rule="nonzero"/>
		<path id="Vector" d="M9 8.55L9.59 8.1L13.41 13.2L16.54 10.85L16.93 11.35L13.2 14.14L9 8.55Z" fill="#303030" fill-opacity="1.000000" fill-rule="nonzero"/>
		<path id="Vector" d="M15.3 4.37L15.97 4.08L18.61 9.85L22.18 8.24L22.44 8.82L18.2 10.75L15.3 4.37Z" fill="#303030" fill-opacity="1.000000" fill-rule="nonzero"/>
		<path id="Vector" d="M28.48 6.67L28.63 7.3L23.8 8.43L22.21 1.61L26.89 0.52L27.02 1.14L23.02 2.07L23.6 4.5L27.12 3.66L27.27 4.28L23.74 5.1L24.34 7.63L28.48 6.67Z" fill="#303030" fill-opacity="1.000000" fill-rule="nonzero"/>
		<path id="Vector" d="M35.34 6.93L33.67 4.72C33.49 4.74 33.3 4.74 33.12 4.72L31.24 4.79L31.3 7.01L30.56 7.01L30.34 0.01L33 0C33.75 -0.07 34.5 0.13 35.12 0.57C35.37 0.77 35.58 1.04 35.73 1.34C35.87 1.64 35.94 1.97 35.93 2.31C35.96 2.8 35.83 3.29 35.56 3.71C35.28 4.1 34.87 4.4 34.4 4.56L36.15 6.9L35.34 6.93ZM34.65 3.64C34.82 3.47 34.96 3.27 35.05 3.04C35.14 2.81 35.18 2.57 35.15 2.33C35.16 2.08 35.11 1.84 35.01 1.62C34.91 1.4 34.75 1.2 34.56 1.05C34.1 0.73 33.55 0.59 33 0.64L31.1 0.71L31.22 4.21L33.08 4.15C33.64 4.17 34.2 3.99 34.65 3.64Z" fill="#303030" fill-opacity="1.000000" fill-rule="nonzero"/>
		<path id="Vector" d="M40.64 5.06L40.28 7.45L39.54 7.35L39.91 5L37.84 0L38.63 0.12L40.4 4.37L43.4 0.85L44.1 1L40.64 5.06Z" fill="#303030" fill-opacity="1.000000" fill-rule="nonzero"/>
		<path id="Vector" d="M50.53 4.65L51.4 5.78L51.02 6.08L50.15 4.92L49.6 6.22L49.18 6.05L49.74 4.74L48.3 4.93L48.3 4.45L49.72 4.29L48.84 3.16L49.23 2.86L50 4L50.54 2.68L50.97 2.86L50.46 4.2L51.9 4L51.9 4.49L50.53 4.65Z" fill="#303030" fill-opacity="1.000000" fill-rule="nonzero"/>
		<path id="Vector" d="M53.87 12.71C53.63 12.34 53.48 11.93 53.43 11.5L54.02 11.23C54.07 11.63 54.2 12.01 54.4 12.35C54.63 12.74 54.92 13.08 55.26 13.35C55.62 13.7 56.08 13.92 56.56 13.98C56.74 14 56.92 13.97 57.08 13.91C57.25 13.84 57.39 13.73 57.5 13.6C57.59 13.5 57.65 13.4 57.69 13.28C57.73 13.16 57.75 13.04 57.74 12.91C57.7 12.67 57.62 12.44 57.5 12.23C57.31 11.92 57.1 11.62 56.88 11.33C56.62 10.99 56.38 10.62 56.16 10.23C56 9.95 55.91 9.62 55.9 9.29C55.9 8.92 56.04 8.57 56.29 8.29C56.51 8.03 56.8 7.83 57.12 7.72C57.49 7.62 57.87 7.62 58.24 7.72C58.7 7.88 59.13 8.12 59.5 8.44C59.81 8.7 60.09 9 60.31 9.33C60.53 9.63 60.69 9.97 60.78 10.33L60.22 10.62C60.12 10.29 59.97 9.97 59.77 9.68C59.58 9.43 59.36 9.19 59.11 9C58.75 8.66 58.3 8.44 57.81 8.39C57.64 8.37 57.46 8.4 57.29 8.47C57.13 8.54 56.99 8.65 56.87 8.79C56.79 8.89 56.73 8.99 56.69 9.11C56.65 9.23 56.63 9.35 56.64 9.47C56.67 9.73 56.75 9.97 56.88 10.18C57.02 10.41 57.23 10.71 57.5 11.08C57.76 11.42 58 11.78 58.22 12.16C58.38 12.44 58.47 12.76 58.49 13.1C58.49 13.47 58.35 13.82 58.1 14.1C57.88 14.36 57.58 14.56 57.25 14.66C56.89 14.77 56.51 14.77 56.14 14.66C55.67 14.51 55.24 14.27 54.87 13.94C54.46 13.59 54.12 13.17 53.87 12.71Z" fill="#303030" fill-opacity="1.000000" fill-rule="nonzero"/>
		<path id="Vector" d="M63.92 14.16L62.52 12.16L63.03 11.79L66.28 16.43L65.76 16.8L64.36 14.8L59.14 18.45L58.72 17.84L63.92 14.16Z" fill="#303030" fill-opacity="1.000000" fill-rule="nonzero"/>
		<path id="Vector" d="M61.68 22.39C61.86 21.78 62.21 21.24 62.68 20.83C63.15 20.41 63.72 20.12 64.33 20C64.95 19.85 65.6 19.88 66.21 20.06C66.79 20.26 67.32 20.6 67.74 21.06C68.17 21.56 68.46 22.16 68.58 22.81C68.75 23.44 68.75 24.1 68.58 24.73C68.4 25.34 68.06 25.88 67.58 26.29C67.11 26.72 66.53 27.02 65.9 27.16C65.28 27.29 64.63 27.26 64.01 27.08C63.42 26.89 62.89 26.54 62.49 26.08C62.06 25.58 61.76 24.99 61.64 24.35C61.48 23.7 61.5 23.02 61.68 22.39ZM63 25.56C63.33 25.95 63.76 26.23 64.25 26.37C64.74 26.52 65.27 26.54 65.78 26.42C66.28 26.31 66.75 26.08 67.15 25.73C67.51 25.4 67.79 24.96 67.93 24.48C68.07 23.98 68.09 23.45 67.97 22.93C67.86 22.42 67.62 21.95 67.29 21.54C66.94 21.16 66.49 20.88 66 20.73C65.49 20.6 64.96 20.6 64.46 20.73C63.95 20.83 63.47 21.07 63.1 21.43C62.72 21.77 62.45 22.2 62.3 22.68C62.17 23.19 62.17 23.73 62.3 24.23C62.41 24.73 62.65 25.19 63 25.56Z" fill="#303030" fill-opacity="1.000000" fill-rule="nonzero"/>
		<path id="Vector" d="M60.92 34L63.52 33C63.52 32.81 63.58 32.63 63.63 32.44L64.12 30.63L62 30.08L62.18 29.37L68.94 31.18L68.26 33.71C68.11 34.45 67.7 35.11 67.11 35.58C66.83 35.77 66.52 35.89 66.19 35.94C65.86 35.99 65.52 35.96 65.21 35.85C64.72 35.75 64.29 35.48 63.98 35.1C63.67 34.72 63.5 34.24 63.5 33.75L60.74 34.75L60.92 34ZM64.28 34.27C64.39 34.49 64.55 34.67 64.74 34.82C64.93 34.97 65.15 35.08 65.39 35.14C65.62 35.21 65.87 35.22 66.11 35.19C66.35 35.15 66.58 35.07 66.79 34.94C67.23 34.59 67.53 34.09 67.64 33.54L68.12 31.73L64.73 30.83L64.25 32.62C64.06 33.16 64.07 33.75 64.28 34.27Z" fill="#303030" fill-opacity="1.000000" fill-rule="nonzero"/>
		<path id="Vector" d="M57.34 40.43L56.83 40.05L59.83 36.1L65.4 40.33L62.51 44.16L62 43.77L64.44 40.54L62.45 39.03L60.26 41.91L59.76 41.54L62 38.64L59.92 37.08L57.34 40.43Z" fill="#303030" fill-opacity="1.000000" fill-rule="nonzero"/>
		<path id="Vector" d="M55 48.41L53.56 48.48L53.56 48L55 48L54.23 46.81L54.62 46.56L55.38 47.75L56 46.41L56.42 46.64L55.75 47.91L57.17 47.83L57.17 48.31L55.73 48.31L56.5 49.5L56.11 49.75L55.35 48.56L54.68 49.85L54.26 49.62L55 48.41Z" fill="#303030" fill-opacity="1.000000" fill-rule="nonzero"/>
		<path id="Vector" d="M42 47.6L43.21 48.27C43.41 47.89 43.69 47.54 44.04 47.27C44.38 47 44.78 46.8 45.21 46.69C45.6 46.57 46.02 46.53 46.43 46.56C46.79 46.59 47.14 46.72 47.43 46.92C47.7 47.13 47.9 47.41 48 47.73C48.12 48.12 48.09 48.54 47.93 48.92C47.68 49.44 47.35 49.91 46.93 50.31C47.26 50.49 47.57 50.71 47.85 50.96C48.03 51.16 48.17 51.4 48.26 51.65C48.31 51.86 48.31 52.07 48.26 52.27C48.22 52.47 48.13 52.66 48 52.83C47.73 53.21 47.33 53.48 46.88 53.6C46.48 53.75 46.03 53.75 45.64 53.6C45.46 53.52 45.3 53.4 45.18 53.25C45.05 53.11 44.96 52.93 44.92 52.75C44.81 52.41 44.84 52.06 44.99 51.75C45.21 51.29 45.51 50.87 45.88 50.52L43.47 49.17C43.37 49.65 43.35 50.13 43.41 50.6L42.8 50.6C42.75 50.02 42.82 49.43 43 48.87L41.74 48.16L42 47.6ZM43.74 48.6L46.39 50.08C46.73 49.74 47.02 49.35 47.24 48.92C47.34 48.64 47.34 48.31 47.24 48.02C47.19 47.85 47.1 47.69 46.98 47.56C46.86 47.43 46.7 47.33 46.54 47.27C46.12 47.13 45.67 47.13 45.26 47.27C44.92 47.36 44.6 47.53 44.33 47.75C44.06 47.98 43.84 48.26 43.7 48.58L43.74 48.6ZM47.5 52.6C47.56 52.49 47.6 52.37 47.62 52.24C47.63 52.12 47.62 51.99 47.58 51.87C47.51 51.67 47.4 51.49 47.26 51.35C47 51.13 46.72 50.95 46.42 50.79C46.12 51.09 45.86 51.43 45.64 51.79C45.51 52.02 45.49 52.29 45.55 52.54C45.59 52.65 45.64 52.76 45.72 52.85C45.79 52.94 45.89 53.01 46 53.06C46.25 53.16 46.53 53.16 46.79 53.06C47.06 52.99 47.29 52.83 47.46 52.6L47.5 52.6Z" fill="#303030" fill-opacity="1.000000" fill-rule="nonzero"/>
		<path id="Vector" d="M29.81 55.31L29.95 48.31L30.66 48.31L30.55 53.91L33.39 49.25L33.74 49.25L36.4 54L36.5 48.42L37.21 48.42L37.08 55.42L36.47 55.42L33.53 50.19L30.42 55.32L29.81 55.31Z" fill="#303030" fill-opacity="1.000000" fill-rule="nonzero"/>
		<path id="Vector" d="M26.33 48C26.78 48.43 27.11 48.99 27.27 49.6C27.43 50.21 27.42 50.85 27.24 51.46C27.07 52.07 26.74 52.64 26.29 53.09C25.84 53.52 25.28 53.83 24.67 53.97C24.03 54.11 23.37 54.09 22.74 53.91C22.11 53.75 21.53 53.44 21.05 53C20.6 52.56 20.28 52.02 20.12 51.41C19.97 50.79 19.98 50.14 20.16 49.52C20.33 48.91 20.67 48.34 21.13 47.89C21.56 47.46 22.11 47.15 22.71 47C23.34 46.85 24.01 46.87 24.64 47.06C25.27 47.22 25.85 47.54 26.33 48ZM22.92 47.64C22.43 47.76 21.98 48.01 21.63 48.37C21.26 48.73 20.99 49.19 20.87 49.7C20.73 50.2 20.73 50.72 20.87 51.23C20.98 51.71 21.24 52.16 21.6 52.51C21.97 52.87 22.44 53.14 22.95 53.28C23.45 53.4 23.99 53.4 24.5 53.28C24.98 53.15 25.43 52.91 25.79 52.56C26.16 52.19 26.42 51.73 26.55 51.23C26.69 50.72 26.69 50.19 26.55 49.68C26.43 49.2 26.17 48.76 25.81 48.41C25.44 48.04 24.97 47.77 24.46 47.64C23.95 47.51 23.42 47.51 22.92 47.64Z" fill="#303030" fill-opacity="1.000000" fill-rule="nonzero"/>
		<path id="Vector" d="M15.35 43L15.62 45.75C15.79 45.82 15.95 45.9 16.12 46L17.75 46.93L18.85 45L19.5 45.37L16 51.39L13.72 50.08C13.04 49.75 12.51 49.18 12.22 48.49C12.11 48.17 12.07 47.84 12.11 47.51C12.15 47.18 12.26 46.86 12.44 46.58C12.67 46.15 13.04 45.8 13.49 45.58C13.94 45.4 14.45 45.36 14.93 45.48L14.64 42.54L15.35 43ZM14.21 46.16C13.97 46.21 13.75 46.32 13.56 46.47C13.36 46.61 13.2 46.8 13.08 47.01C12.96 47.22 12.88 47.45 12.86 47.69C12.83 47.93 12.85 48.17 12.92 48.41C13.15 48.92 13.56 49.34 14.07 49.6L15.68 50.53L17.43 47.53L15.82 46.6C15.35 46.25 14.78 46.08 14.21 46.1L14.21 46.16Z" fill="#303030" fill-opacity="1.000000" fill-rule="nonzero"/>
		<path id="Vector" d="M9.43 38.31L9.88 37.85L13.33 41.4L8.32 46.29L5 42.85L5.45 42.39L8.29 45.31L10 43.58L7.52 41L8 40.54L10.53 43.13L12.39 41.33L9.43 38.31Z" fill="#303030" fill-opacity="1.000000" fill-rule="nonzero"/>
		<path id="Vector" d="M2 34.37L2.23 33L2.7 33.06L2.43 34.49L3.77 34L3.92 34.43L2.57 34.89L3.68 35.83L3.37 36.2L2.29 35.2L2.04 36.62L1.56 36.52L1.84 35.1L0.51 35.58L0.35 35.2L1.69 34.73L0.58 33.79L0.92 33.43L2 34.37Z" fill="#303030" fill-opacity="1.000000" fill-rule="nonzero"/>
	</g>
</svg>
